<?xml version="1.0" encoding="UTF-8"?>
<svg xmlns="http://www.w3.org/2000/svg" width="900" height="600" viewBox="0 0 9 6">
<rect width="9" height="6" fill="#ee1c25"/>
<rect width="9" height="4" fill="#0b4ea2"/>
<rect width="9" height="2" fill="#fff"/>
<path d="M 2.25,3 C 2.25,1.9 2.9,1.1 3.75,1.1 4.6,1.1 5.25,1.9 5.25,3 z" fill="#fff"/>
<path d="M 2.75,3 C 2.75,2.3 3.2,1.6 3.75,1.6 4.3,1.6 4.75,2.3 4.75,3 z" fill="#ee1c25"/>
<path d="M 3,2.2 3.3,2.7 3.75,2.6 4.2,2.7 4.5,2.2 4.25,2.8 3.75,3.1 3.25,2.8 z" fill="#fff"/>
<path d="m 3.75,1.6 c -0.5,0 -0.75,0.5 -0.75,0.5 0,-0.5 0.25,-0.7 0.75,-0.7 0.5,0 0.75,0.2 0.75,0.7 0,0 -0.25,-0.5 -0.75,-0.5 z" fill="#0b4ea2"/>
<path d="m 3.25,2.8 -0.5,0.6 0.5,0.6 c 0,0 -0.3,-0.4 -0.3,-0.6 0,-0.2 0.3,-0.6 0.3,-0.6 z m 1,0 c 0,0 0.3,0.4 0.3,0.6 0,0.2 -0.3,0.6 -0.3,0.6 l 0.5,-0.6 -0.5,-0.6 z" fill="#0b4ea2"/>
<path d="m 3.2,3.85 c 0,0 0.1,0.1 0.55,0.1 0.45,0 0.55,-0.1 0.55,-0.1 l -0.55,-0.25 -0.55,0.25 z" fill="#0b4ea2"/>
</svg>
